<svg xmlns="http://www.w3.org/2000/svg" xmlns:svg="http://www.w3.org/2000/svg" id="svg2" width="16" height="16" version="1.1"><metadata id="metadata14"/><path style="color:#000;text-indent:0;text-transform:none;fill:#bebebe;stroke-width:1.0824945" id="path59049" d="M 7.984375,2 C 4.1259648,2 1,5.1508271 1,9 1,12.849173 4.1259648,16 7.984375,16 11.842785,16 15,12.849173 15,9 15,5.1508271 11.842785,2 7.984375,2 Z m 0.00391,2 C 10.744288,4 13,6.2505908 13,9 13,11.749409 10.744288,14 7.9882812,14 5.2322739,14 3,11.749409 3,9 3,6.2505908 5.2322739,4 7.9882812,4 Z"/><path d="M 4.2812,0 C 2.475,0 1,1.4751 1,3.2812 c 0,0.40491 0.0842,0.76711 0.21875,1.125 1.206,-1.8223 3.184,-3.1023 5.4688,-3.3438 -0.6,-0.65 -1.46,-1.06 -2.41,-1.06 z" style="color:#000;fill:#bebebe" id="path59561-6"/><path d="m 11.71835,0 c 1.8062,0 3.2812,1.4751 3.2812,3.2812 0,0.40491 -0.0842,0.76711 -0.21875,1.125 -1.206,-1.8223 -3.184,-3.1023 -5.4688,-3.3438 0.6,-0.65 1.46,-1.06 2.41,-1.06 z" style="color:#000;fill:#bebebe" id="path59561-6-7"/><path d="m 6,6 h 4 V 6.9765625 L 7.4415869,10 10,10.000001 V 11 H 6 V 10 L 8.6063525,7 H 6 V 6" style="font-style:normal;font-weight:700;font-size:8px;line-height:125%;font-family:Sans;-inkscape-font-specification:'Sans Bold';letter-spacing:0;word-spacing:0;fill:#bebebe;fill-opacity:1;stroke:none" id="path3889"/></svg>