<svg xmlns="http://www.w3.org/2000/svg" xmlns:svg="http://www.w3.org/2000/svg" id="svg8" width="23" height="23" x="0" y="0" enable-background="new 0 0 23 23" version="1.1" viewBox="0 0 23 23" xml:space="preserve"><metadata id="metadata14"/><path id="XMLID_9_" d="M 12.97495,1.1983968 C 6.6239499,1.1983968 0,5.149 0,11.5 0,17.852 5.149,23 11.5,23 17.852,23 23,17.852 23,11.5 23,5.149 19.32695,1.1983968 12.97495,1.1983968 Z m -1.981964,0.2094345 c 5.269,0 10.046076,4.8231687 10.046076,10.0921687 0,0.810396 -0.110551,1.59242 -0.300781,2.34375 l -4.537109,-5.0429688 -5.800781,6.5996098 2.798828,-5.5996098 -1.398438,-2.5 -8.2460935,9.4765628 C 2.5486997,15.265661 1.9609375,13.451673 1.9609375,11.5 c 0,-5.269 3.7630485,-10.0921687 9.0320485,-10.0921687 z" style="fill:#bebebe;fill-opacity:1"/><path style="opacity:1;fill:#bebebe;fill-opacity:1;stroke:#bebebe;stroke-width:.30000001;stroke-miterlimit:0;stroke-dasharray:none;stroke-opacity:1" id="path816" d="M 5.1623247,6.9599193 C 5.085604,6.9695094 3.5612436,5.039852 3.5145779,4.978205 3.4679123,4.916558 2.0244754,2.9256432 2.0545305,2.8544061 2.0845856,2.783169 4.5178981,2.4278627 4.5946188,2.4182727 4.6713395,2.4086826 7.1172408,2.1540869 7.1639064,2.215734 7.210572,2.277381 6.3016199,4.5623446 6.2715648,4.6335817 6.2415097,4.7048188 5.2390454,6.9503292 5.1623247,6.9599193 Z" transform="matrix(1.4934177,0,0,1.511547,-2.0903237,-1.606652)"/></svg>