<svg xmlns="http://www.w3.org/2000/svg" xmlns:svg="http://www.w3.org/2000/svg" xmlns:xlink="http://www.w3.org/1999/xlink" id="svg2" version="1.0" viewBox="0 0 78.5 57.648"><defs id="defs4"><linearGradient id="linearGradient3642"><stop id="stop3644" style="stop-color:#fff" offset="0"/><stop id="stop3646" style="stop-color:#fff;stop-opacity:0" offset="1"/></linearGradient><linearGradient id="linearGradient3616"><stop id="stop3618" style="stop-color:#555753" offset="0"/><stop id="stop3620" style="stop-color:#555753;stop-opacity:0" offset="1"/></linearGradient><linearGradient id="linearGradient3612" x1="-22.88" x2="-22.88" y1="15.268" y2="26.051" gradientTransform="matrix(2.4082 0 0 2.4082 32.84 -39.026)" gradientUnits="userSpaceOnUse"><stop id="stop3687" style="stop-color:#d3d7cf" offset="0"/><stop id="stop3689" style="stop-color:#ecece9" offset="1"/></linearGradient><linearGradient id="linearGradient3622" x1="-36.799" x2="-35.512" y1="32.12" y2="37.873" gradientUnits="userSpaceOnUse" xlink:href="#linearGradient3616"/><radialGradient id="radialGradient3648" cx="-36.062" cy="35.272" r="2.652" gradientUnits="userSpaceOnUse" xlink:href="#linearGradient3642"/><linearGradient id="linearGradient3677" x1="-22.88" x2="-22.88" y1="15.268" y2="26.051" gradientTransform="matrix(2.1797 0 0 -2.1797 27.344 65.629)" gradientUnits="userSpaceOnUse"><stop id="stop3681" style="stop-color:#fff" offset="0"/><stop id="stop3683" style="stop-color:#eaebe8" offset="1"/></linearGradient></defs><g id="layer1" transform="translate(62.25 -.38911)"><rect id="rect2704" style="fill:#d3d7cf" width="76" height="24" x="-61" y="30.787"/><rect id="rect3476" style="fill:#555753" width="2" height="16" x="-8.573" y="35.123"/><rect id="rect3478" style="fill:#eeeeec" width="2" height="16" x="-6.573" y="35.123"/><path id="path3566" style="fill:#eeeeec" d="m-62 30.037l16-28h44c0.7313 1.7746 16 28 16 28h-76z"/><rect id="rect3573" style="fill:#555753" width="2" height="16" x="-2.823" y="35.248"/><rect id="rect3575" style="fill:#eeeeec" width="2" height="16" x="-.823" y="35.248"/><rect id="rect3577" style="fill:#555753" width="2" height="16" x="3.177" y="35.373"/><rect id="rect3579" style="fill:#eeeeec" width="2" height="16" x="5.177" y="35.373"/><path id="path3581" style="stroke:#fff;stroke-linecap:round;stroke-width:2;fill:#babdb6" d="m-61 30.787h75.25"/><path id="path3603" style="stroke:url(#linearGradient3612);stroke-linecap:round;stroke-width:2.4082;fill:none" d="m3.0832 16.048c0 7.21-11.354 13.061-25.343 13.061-13.99 0-25.344-5.851-25.344-13.061 0-7.2094 11.354-13.061 25.344-13.061 13.989 0.0004 25.343 5.8516 25.343 13.061z"/><g id="g3658" transform="matrix(2 0 0 2 23 -29.213)"><path id="path3614" style="stroke:url(#linearGradient3622);stroke-linecap:round;fill:#a40000" d="m -33.410796,35.272079 a 2.6516504,2.6516504 0 0 1 -2.651651,2.651651 2.6516504,2.6516504 0 0 1 -2.65165,-2.651651 2.6516504,2.6516504 0 0 1 2.65165,-2.65165 2.6516504,2.6516504 0 0 1 2.651651,2.65165 z" transform="matrix(.67279 0 0 .67279 -13.028 12.394)"/><path id="path3632" style="fill:url(#radialGradient3648)" d="m -33.410796,35.272079 a 2.6516504,2.6516504 0 0 1 -2.651651,2.651651 2.6516504,2.6516504 0 0 1 -2.65165,-2.651651 2.6516504,2.6516504 0 0 1 2.65165,-2.65165 2.6516504,2.6516504 0 0 1 2.651651,2.65165 z" transform="matrix(.53566 0 0 .44399 -18.429 20.045)"/></g><g id="g3662" transform="matrix(2 0 0 2 23 -29.213)"><path id="path3650" style="stroke:url(#linearGradient3622);stroke-linecap:round;fill:#4e9a06" d="m -33.410796,35.272079 a 2.6516504,2.6516504 0 0 1 -2.651651,2.651651 2.6516504,2.6516504 0 0 1 -2.65165,-2.651651 2.6516504,2.6516504 0 0 1 2.65165,-2.65165 2.6516504,2.6516504 0 0 1 2.651651,2.65165 z" transform="matrix(.67279 0 0 .67279 -7.0276 12.394)"/><path id="path3652" style="fill:url(#radialGradient3648)" d="m -33.410796,35.272079 a 2.6516504,2.6516504 0 0 1 -2.651651,2.651651 2.6516504,2.6516504 0 0 1 -2.65165,-2.651651 2.6516504,2.6516504 0 0 1 2.65165,-2.65165 2.6516504,2.6516504 0 0 1 2.651651,2.65165 z" transform="matrix(.48566 0 0 .44399 -13.967 20.001)"/></g><path id="rect3568" style="stroke-linejoin:bevel;stroke:#000;stroke-linecap:round;stroke-width:2.0457;fill:none" d="m-23.25 1.412c-3.711 0-7.221 0.5048-10.25 1.375h-11.5l-16 28v24h76v-24s-15.269-26.225-16-28h-12.062c-3.028-0.869-6.479-1.375-10.188-1.375z"/><path id="path3675" style="stroke:url(#linearGradient3677);stroke-linecap:round;stroke-width:2.1797;fill:none" d="m0.41081 15.781c0-6.5259-10.277-11.822-22.939-11.822s-22.938 5.2961-22.938 11.822c0 6.525 10.276 11.821 22.938 11.821s22.939-5.296 22.939-11.821z"/></g><metadata id="metadata40"/></svg>