<svg xmlns="http://www.w3.org/2000/svg" xmlns:svg="http://www.w3.org/2000/svg" id="svg5238" width="16" height="16" version="1.1"><metadata id="metadata5243"/><g id="layer1" transform="translate(-272,-392.93362)"><path style="fill:#bebebe;fill-opacity:1" id="rect20" d="M 3.4375 0 C 1.533125 0 0 1.533125 0 3.4375 L 0 12.5625 C 0 14.466875 1.533125 16 3.4375 16 L 12.5625 16 C 14.466875 16 16 14.466875 16 12.5625 L 16 3.4375 C 16 1.533125 14.466875 0 12.5625 0 L 3.4375 0 z M 2.84375 2.5 A 10.765199 10.713849 0 0 1 13.59375 13.1875 L 11.46875 13.1875 A 8.6121577 8.5710802 0 0 0 2.84375 4.625 L 2.84375 2.5 z M 2.8125 6.125 A 7.1219231 7.1359988 0 0 1 9.9375 13.25 L 7.84375 13.25 A 5.0344639 5.0444137 0 0 0 2.8125 8.21875 L 2.8125 6.125 z M 4.21875 10.375 C 5.02544 10.375 5.6875 11.03544 5.6875 11.84375 C 5.6875 12.65206 5.02544 13.3125 4.21875 13.3125 C 3.41206 13.3125 2.78125 12.65206 2.78125 11.84375 C 2.78125 11.03544 3.41206 10.375 4.21875 10.375 z" transform="translate(272,392.93362)"/></g></svg>