<svg xmlns="http://www.w3.org/2000/svg" xmlns:svg="http://www.w3.org/2000/svg" id="svg5238" width="16" height="16" version="1.1"><metadata id="metadata5243"/><g id="layer1" transform="translate(-272,-392.93362)"><path style="fill:#bebebe;fill-opacity:1" id="path3960" d="m 275.4375,392.93362 c -1.90438,0 -3.4375,1.53312 -3.4375,3.4375 l 0,9.125 c 0,1.90438 1.53312,3.4375 3.4375,3.4375 l 9.125,0 c 1.90438,0 3.4375,-1.53312 3.4375,-3.4375 l 0,-9.125 c 0,-1.90438 -1.53312,-3.4375 -3.4375,-3.4375 l -9.125,0 z"/><path style="fill:#ff9000;fill-opacity:1" id="path3958" d="m 274.84375,395.43362 a 10.765199,10.713849 0 0 1 10.75,10.6875 l -2.125,0 a 8.6121577,8.5710802 0 0 0 -8.625,-8.5625 l 0,-2.125 z" class="warning"/><path style="fill:#ff9000;fill-opacity:1" id="path3956" d="m 274.8125,399.05862 a 7.1219231,7.1359988 0 0 1 7.125,7.125 l -2.09375,0 a 5.0344639,5.0444137 0 0 0 -5.03125,-5.03125 l 0,-2.09375 z" class="warning"/><path style="fill:#ff9000;fill-opacity:1" id="rect20" d="m 276.21875,403.30862 c 0.80669,0 1.46875,0.66044 1.46875,1.46875 0,0.80831 -0.66206,1.46875 -1.46875,1.46875 -0.80669,0 -1.4375,-0.66044 -1.4375,-1.46875 0,-0.80831 0.63081,-1.46875 1.4375,-1.46875 z" class="warning"/></g></svg>