<svg xmlns="http://www.w3.org/2000/svg" xmlns:svg="http://www.w3.org/2000/svg" id="Layer_1" x="0" y="0" version="1.1" viewBox="0 0 30 30" xml:space="preserve" style="enable-background:new 0 0 30 30"><metadata id="metadata9"/><g id="layer1"><path d="M 18.339844 3.3613281 C 14.234673 3.2754481 10.344372 7.0480777 10.722656 11.220703 C 10.73733 11.462142 10.766332 11.701543 10.806641 11.939453 L 12.748047 11.939453 C 12.280332 9.5509552 13.336539 6.8353543 15.605469 5.7695312 C 16.295772 5.3668584 17.101011 5.1223614 17.890625 5.1347656 C 17.914065 5.2897135 17.937498 5.4446615 17.960938 5.5996094 C 18.508634 8.3456359 20.848038 10.582528 23.568359 11.144531 C 23.650399 13.24704 21.961259 15.000026 20.167969 15.833984 C 19.468809 16.126823 18.7056 16.245997 17.943359 16.234375 L 17.943359 18.117188 C 17.954509 18.116826 17.965404 18.117611 17.976562 18.117188 C 21.576964 18.114887 25.07014 15.214894 25.302734 11.541016 C 25.390214 10.905898 25.380756 10.167235 25.029297 9.6308594 C 22.988175 9.4890467 20.748562 8.5611295 19.96875 6.515625 C 19.534994 5.5821579 19.50973 4.5227024 19.279297 3.5410156 C 19.023542 3.3127853 18.653604 3.3624533 18.339844 3.3613281 z" style="stroke-width:1.0372" id="path2-6"/></g><g id="layer3"><path id="path2" d="m 1.48,21.1 c 0,0.24 0.09,0.44 0.27,0.6 0.17,0.17 0.37,0.25 0.61,0.25 h 5.88 c 0.26,0 0.48,0.09 0.68,0.28 0.2,0.19 0.3,0.42 0.3,0.68 0,0.26 -0.1,0.5 -0.3,0.69 -0.2,0.19 -0.42,0.29 -0.68,0.29 -0.26,0 -0.48,-0.1 -0.68,-0.3 -0.18,-0.16 -0.38,-0.24 -0.61,-0.24 -0.24,0 -0.44,0.08 -0.6,0.24 -0.16,0.16 -0.24,0.36 -0.24,0.6 0,0.24 0.08,0.44 0.24,0.6 0.53,0.53 1.16,0.8 1.89,0.8 0.74,0 1.37,-0.26 1.88,-0.78 0.51,-0.52 0.78,-1.15 0.78,-1.89 0,-0.74 -0.26,-1.37 -0.78,-1.89 C 9.6,20.51 8.97,20.25 8.24,20.25 H 2.36 c -0.24,0 -0.44,0.08 -0.62,0.25 -0.17,0.17 -0.26,0.37 -0.26,0.6 z" style="enable-background:new 0 0 30 30"/><path id="path19" d="m 1.48,18.09 c 0,0.23 0.09,0.42 0.27,0.58 0.16,0.16 0.37,0.24 0.61,0.24 h 10.97 c 0.74,0 1.37,-0.26 1.89,-0.78 0.52,-0.52 0.78,-1.15 0.78,-1.89 0,-0.74 -0.26,-1.36 -0.78,-1.88 -0.52,-0.51 -1.15,-0.77 -1.89,-0.77 -0.76,0 -1.38,0.25 -1.88,0.76 -0.16,0.16 -0.23,0.37 -0.23,0.61 0,0.24 0.08,0.44 0.23,0.6 0.15,0.15 0.35,0.23 0.6,0.23 0.24,0 0.44,-0.08 0.62,-0.23 0.19,-0.19 0.41,-0.28 0.68,-0.28 0.27,0 0.49,0.09 0.68,0.28 0.19,0.19 0.29,0.42 0.29,0.68 0,0.27 -0.1,0.5 -0.29,0.69 -0.19,0.19 -0.42,0.29 -0.68,0.29 H 2.36 c -0.24,0 -0.44,0.09 -0.62,0.26 -0.17,0.18 -0.26,0.38 -0.26,0.61 z" style="enable-background:new 0 0 30 30"/></g></svg>