<svg xmlns="http://www.w3.org/2000/svg" xmlns:svg="http://www.w3.org/2000/svg" id="Layer_1" x="0" y="0" version="1.1" viewBox="0 0 492.004 492.004" style="enable-background:new 0 0 492.004 492.004" xml:space="preserve"><metadata id="metadata43"/><g id="g6" transform="rotate(-90,246.00205,246.002)"><g id="g4"><path id="path2" d="M 484.14,226.886 306.46,49.202 c -5.072,-5.072 -11.832,-7.856 -19.04,-7.856 -7.216,0 -13.972,2.788 -19.044,7.856 l -16.132,16.136 c -5.068,5.064 -7.86,11.828 -7.86,19.04 0,7.208 2.792,14.2 7.86,19.264 L 355.9,207.526 H 26.58 C 11.732,207.526 0,219.15 0,234.002 v 22.812 c 0,14.852 11.732,27.648 26.58,27.648 H 357.076 L 252.248,388.926 c -5.068,5.072 -7.86,11.652 -7.86,18.864 0,7.204 2.792,13.88 7.86,18.948 l 16.132,16.084 c 5.072,5.072 11.828,7.836 19.044,7.836 7.208,0 13.968,-2.8 19.04,-7.872 l 177.68,-177.68 c 5.084,-5.088 7.88,-11.88 7.86,-19.1 0.016,-7.244 -2.776,-14.04 -7.864,-19.12 z"/></g></g></svg>