<svg xmlns="http://www.w3.org/2000/svg" xmlns:cc="http://web.resource.org/cc/" id="svg3737" width="48" height="48" version="1.0" viewBox="0 0 48 48" xml:space="preserve"><metadata id="metadata3756"/><path id="path5537" d="m47 24a23 23 0 1 1-46 0 23 23 0 1 1 46 0z" style="fill-rule:evenodd;fill:#fff"/><path id="path6424" d="m43 24a19 19 0 1 1-38 0 19 19 0 1 1 38 0z" style="fill-rule:evenodd"/><path id="path3746" d="m29.1 8.9c0-0.1-0.2-0.2-0.2-0.1l-8 8.1c-0.3 0.3-0.2 0.3 0 0.5l8 8c0.1 0.1 0.2 0 0.2-0.1l-0.1-5.3h2c2 0 3 0.2 3 2v3c0 2-3.9 2.3-3.9 2.9s0.9 1.1 0.9 1.1h3c2.7 0 4-2.4 4-5v-4c0-4.2-2.6-6-6-6h-3v-5.1h0.1z" style="fill:#fff"/><g id="crop_x0020_marks" style="stroke:#000"><path id="path3751" d="m48 48h-48v-48h48v48z" style="fill:none;stroke:none"/></g><path id="path7311" d="m18.9 39.1c0 0.1 0.2 0.2 0.2 0.1l8-8.1c0.3-0.3 0.2-0.3 0-0.5l-8-8c-0.1-0.1-0.2 0-0.2 0.1l0.1 5.3h-2c-2 0-3-0.2-3-2v-3c0-2 3.9-2.3 3.9-2.9s-0.9-1.1-0.9-1.1h-3c-2.7 0-4 2.4-4 5v4c0 4.2 2.6 6 6 6h3v5.1h-0.1z" style="fill:#fff"/></svg>