<svg xmlns="http://www.w3.org/2000/svg" xmlns:svg="http://www.w3.org/2000/svg" id="svg4" width="16" height="16" version="1.1"><metadata id="metadata10"/><path id="path2" d="M 2,0 C 0,0 0,2 0,2 V 11 C 0,11 0,13 2,13 H 14 C 14,13 16,13 16,11 V 2 C 16,2 16,0 14,0 Z M 2,2 H 14 V 11 H 2 Z M 3,15 V 16 H 13 V 15 C 13,14 12,14 12,14 H 4 C 4,14 3,14 3,15 Z" style="fill:#bebebe;fill-opacity:1"/><g id="layer1"><rect id="rect813" width="2.983" height="2.915" x="3.661" y="3.458" style="opacity:0;fill:#666;fill-opacity:1"/><rect id="rect815" width="2.5" height="2.576" x="10" y="4" style="opacity:1;fill:#bebebe;fill-opacity:1;stroke:#bebebe;stroke-width:.1;stroke-miterlimit:4;stroke-dasharray:none;stroke-opacity:1"/></g></svg>