<svg xmlns="http://www.w3.org/2000/svg" xmlns:svg="http://www.w3.org/2000/svg" id="svg7" width="16" height="16" version="1.1" viewBox="0 0 16 16"><metadata id="metadata11"/><defs id="defs3"><style id="current-color-scheme" type="text/css">.ColorScheme-Text{color:#dadada}</style></defs><path style="enable-background:new;opacity:1;fill:#fff;fill-opacity:1;stroke:#bebebe;stroke-width:.30000001;stroke-miterlimit:0;stroke-dasharray:none;stroke-opacity:1" id="path5" d="M 2.34375 0.9375 L 0.9375 2.34375 L 3.0507812 4.4570312 C 0.85068125 5.9316312 8.8817842e-16 8 0 8 C 0 8 2 13.003906 8 13.003906 C 9.1815 13.003906 10.191172 12.795422 11.076172 12.482422 L 13.65625 15.0625 L 15.0625 13.65625 L 2.34375 0.9375 z M 8 3.0039062 C 7.4761 3.0039062 6.9935969 3.0535469 6.5292969 3.1230469 L 8.4492188 5.0429688 A 3 3 0 0 1 10.964844 7.5585938 L 14.074219 10.667969 C 15.448219 9.3657688 16 8.0039063 16 8.0039062 C 16 8.0039062 14 3.0039062 8 3.0039062 z M 5.3007812 6.7070312 L 9.296875 10.703125 A 3 3 0 0 1 8 11.003906 A 3 3 0 0 1 5 8.0039062 A 3 3 0 0 1 5.3007812 6.7070312 z" class="ColorScheme-Text"/></svg>