<svg xmlns="http://www.w3.org/2000/svg" xmlns:svg="http://www.w3.org/2000/svg" id="svg8" x="0" y="0" enable-background="new 0 0 1000 1000" version="1.1" viewBox="0 0 1000 1000" xml:space="preserve"><metadata id="metadata2">Svg Vector Icons : http://www.onlinewebfonts.com/icon</metadata><g id="g6"><path id="path4" d="m 787.1,293.9 99.1,-106 -102.1,-95.6 -126.2,135 C 609.3,209.8 556.5,198.9 500,198.9 c -294,0 -490,294 -490,294 0,0 78,117 209.4,203.4 L 111,812.2 213.2,907.7 350.1,761.3 c 46.3,15.9 96.5,25.6 149.9,25.6 294,0 490,-294 490,-294 0,0 -75.4,-113.1 -202.9,-199 z M 305,491.8 c 0,-107.7 87.3,-195 195,-195 27.6,0 53.9,5.8 77.8,16.1 l -76.6,81.9 c -0.6,0 -1.1,0 -1.7,0 -53.9,0 -97.5,43.7 -97.5,97.5 0,2.8 0.1,5.5 0.3,8.2 l -75.6,80.8 C 312.9,554.6 305,524.1 305,491.8 Z m 195,195 c -24.2,0 -47.3,-4.4 -68.6,-12.4 L 511,589.2 c 46.8,-5.5 83.5,-44.2 85.9,-91.9 l 80.6,-86.2 c 11.2,24.6 17.4,51.9 17.4,80.7 0.1,107.7 -87.2,195 -194.9,195 z" style="fill:#bebebe;fill-rule:evenodd;enable-background:new"/></g></svg>