<svg xmlns="http://www.w3.org/2000/svg" xmlns:ns1="http://sozi.baierouge.fr" xmlns:svg="http://www.w3.org/2000/svg" xmlns:xlink="http://www.w3.org/1999/xlink" id="svg11300" version="1.0" viewBox="0 0 38 38.001"><defs id="defs3"><radialGradient id="radialGradient3208" cx="24.837" cy="36.421" r="15.645" gradientTransform="matrix(1 0 0 .53672 0 16.873)" gradientUnits="userSpaceOnUse"><stop id="stop8664" style="stop-color:#000" offset="0"/><stop id="stop8666" style="stop-color:#000;stop-opacity:0" offset="1"/></radialGradient><radialGradient id="radialGradient4559" cx="15.987" cy="1.535" r="17.171" gradientTransform="matrix(0 2.0467 1.5576 0 2.3811 -22.965)" gradientUnits="userSpaceOnUse"><stop id="stop8652" style="stop-color:#fff" offset="0"/><stop id="stop8654" style="stop-color:#fff;stop-opacity:0" offset="1"/></radialGradient><radialGradient id="radialGradient4562" cx="35.293" cy="20.494" r="16.956" gradientTransform="matrix(0 .84302 -1.0202 0 45.89 1.3815)" gradientUnits="userSpaceOnUse"><stop id="stop1444" style="stop-color:#729fcf" offset="0"/><stop id="stop1446" style="stop-color:#3465a4" offset="1"/></radialGradient></defs><g id="layer1" transform="translate(-4.4681 -4.9677)"><g id="g4599"><path id="path8660" style="opacity:.20455;fill-rule:evenodd;fill:url(#radialGradient3208)" d="m40.482 36.421a15.645 8.3969 0 1 1 -31.29 0 15.645 8.3969 0 1 1 31.29 0z" transform="matrix(1.2145 0 0 .59546 -6.6957 16.281)"/><path id="path8643" style="stroke-linejoin:round;fill-rule:evenodd;stroke:#183868;stroke-linecap:round;stroke-miterlimit:10;fill:url(#radialGradient4562)" d="m31.978 5.4677l-18.005 0.0039v12.991l-7.9959 0.008 17.145 19.997 16.846-19.998-7.996-0.003 0.006-12.999z"/><path id="path8645" style="opacity:.50802;fill-rule:evenodd;fill:url(#radialGradient4559)" d="m7.0668 18.974l7.4062-0.012-0.003-12.992 15.379 0.0088c-0.77 18.341-10.723 10.993-15.382 21.647l-7.4002-8.652z"/><path id="path8658" style="opacity:.48128;stroke:#fff;stroke-miterlimit:10;fill:none" d="m30.976 6.4716l-16.001-0.0039v12.993l-6.8172 0.015 14.954 17.453 14.707-17.457-6.84-0.005-0.003-12.995z"/></g></g><metadata/></svg>