<svg xmlns="http://www.w3.org/2000/svg" xmlns:ns1="http://sozi.baierouge.fr" xmlns:svg="http://www.w3.org/2000/svg" xmlns:xlink="http://www.w3.org/1999/xlink" id="svg11300" version="1.0" viewBox="0 0 38 38.001"><defs id="defs3"><radialGradient id="radialGradient3199" cx="24.837" cy="36.421" r="15.645" gradientTransform="matrix(1 0 0 .53672 0 16.873)" gradientUnits="userSpaceOnUse"><stop id="stop8664" style="stop-color:#000" offset="0"/><stop id="stop8666" style="stop-color:#000;stop-opacity:0" offset="1"/></radialGradient><radialGradient id="radialGradient4373" cx="24.538" cy=".4" r="17.171" gradientTransform="matrix(0 -2.0467 1.5576 0 2.2614 .80737)" gradientUnits="userSpaceOnUse"><stop id="stop8652" style="stop-color:#fff" offset="0"/><stop id="stop8654" style="stop-color:#fff;stop-opacity:0" offset="1"/></radialGradient><radialGradient id="radialGradient4376" cx="11.319" cy="22.455" r="16.956" gradientTransform="matrix(0 -.84302 1.0202 0 .10078 -23.539)" gradientUnits="userSpaceOnUse"><stop id="stop2306" style="stop-color:#ef2929" offset="0"/><stop id="stop2308" style="stop-color:#c00" offset="1"/></radialGradient></defs><g id="layer1" transform="translate(-4.4943 61.126)"><g id="g4429"><path id="path3191" style="opacity:.29947;fill-rule:evenodd;fill:url(#radialGradient3199)" d="m40.482 36.421a15.645 8.3969 0 1 1 -31.29 0 15.645 8.3969 0 1 1 31.29 0z" transform="matrix(1.2145 0 0 .59546 -6.6695 -49.813)"/><path id="path3193" style="stroke-linejoin:round;fill-rule:evenodd;stroke:#a40000;stroke-linecap:round;stroke-miterlimit:10;fill:url(#radialGradient4376)" d="m13.986-27.625h17.978v-12.953h8.03l-17.125-20.048-16.846 19.99 7.968 0.066-0.005 12.945z"/><path id="path3195" style="opacity:.50802;fill-rule:evenodd;fill:url(#radialGradient4373)" d="m7.0799-41.093h7.4101l0.067 6.562c5.655-11.001 15.993-8.844 16.594-15.628 0 0-8.29-9.544-8.29-9.544l-15.781 18.61z"/><path id="path3197" style="opacity:.48128;stroke:#fff;stroke-miterlimit:10;fill:none" d="m15.097-28.625h15.9v-12.993h6.809l-14.95-17.437-14.707 17.48 6.82-0.022 0.128 12.972z"/></g></g><metadata/></svg>