<svg xmlns="http://www.w3.org/2000/svg" xmlns:svg="http://www.w3.org/2000/svg" id="Capa_1" width="444.819" height="444.819" x="0" y="0" version="1.1" viewBox="0 0 444.819 444.819" style="enable-background:new 0 0 444.819 444.819" xml:space="preserve"><metadata id="metadata41"/><g id="g4" transform="matrix(0.9,0,0,0.9,1.8848263,-7.4792096)"><path id="path2" d="m 434.252,185.721 -21.409,-21.413 c -7.419,-7.042 -16.084,-10.564 -25.975,-10.564 -10.095,0 -18.657,3.521 -25.7,10.564 L 277.23,248.247 V 47.255 c 0,-9.9 -3.621,-18.464 -10.855,-25.697 -7.234,-7.232 -15.797,-10.85 -25.693,-10.85 h -36.545 c -9.897,0 -18.464,3.621 -25.693,10.85 -7.236,7.233 -10.85,15.797 -10.85,25.697 V 248.247 L 83.655,164.308 c -7.042,-7.042 -15.606,-10.564 -25.697,-10.564 -9.896,0 -18.559,3.521 -25.979,10.564 L 10.851,185.721 C 3.615,192.948 0,201.615 0,211.7 c 0,10.282 3.619,18.848 10.848,25.698 l 185.864,186.146 c 7.045,7.046 15.609,10.567 25.697,10.567 9.897,0 18.558,-3.521 25.977,-10.567 L 434.251,237.398 c 7.043,-7.043 10.567,-15.608 10.567,-25.698 0.001,-9.895 -3.523,-18.555 -10.566,-25.979 z"/></g></svg>