<svg xmlns="http://www.w3.org/2000/svg" xmlns:ns1="http://sozi.baierouge.fr" xmlns:svg="http://www.w3.org/2000/svg" xmlns:xlink="http://www.w3.org/1999/xlink" id="svg11300" viewBox="5 5 38 38"><defs id="defs3"><radialGradient id="radialGradient1444" cx="24.837" cy="36.421" r="15.645" gradientTransform="matrix(1 0 0 .53672 1.6147e-15 16.873)" gradientUnits="userSpaceOnUse"><stop id="stop8664" style="stop-color:#000" offset="0"/><stop id="stop8666" style="stop-color:#000;stop-opacity:0" offset="1"/></radialGradient><radialGradient id="radialGradient1469" cx="35.293" cy="20.494" r="16.956" gradientTransform="matrix(1.8719e-16 -.84302 1.0202 2.2652e-16 .60644 42.586)" gradientUnits="userSpaceOnUse"><stop id="stop1444" style="stop-color:#73d216" offset="0"/><stop id="stop1446" style="stop-color:#4e9a06" offset="1"/></radialGradient><radialGradient id="radialGradient1471" cx="15.987" cy="1.535" r="17.171" gradientTransform="matrix(3.7494e-16 -2.0467 -1.5576 -2.8534e-16 44.116 66.933)" gradientUnits="userSpaceOnUse"><stop id="stop8652" style="stop-color:#fff" offset="0"/><stop id="stop8654" style="stop-color:#fff;stop-opacity:0" offset="1"/></radialGradient></defs><g id="layer1"><path id="path8660" style="opacity:.20455;fill-rule:evenodd;color:#000;fill:url(#radialGradient1444)" d="m40.482 36.421a15.645 8.3969 0 1 1 -31.29 0 15.645 8.3969 0 1 1 31.29 0z" transform="matrix(1.2145 0 0 .59546 -6.1638 16.313)"/><g id="g1464" transform="matrix(-1 0 0 -1 47.029 43.999)"><path id="path8643" style="stroke-linejoin:round;fill-rule:evenodd;color:#000;stroke:#3a7304;stroke-linecap:round;stroke-miterlimit:10;fill:url(#radialGradient1469)" d="m14.519 38.5l18.005-0.004v-12.992l7.996-0.007-17.145-19.998-16.846 19.998 7.995 0.004-0.005 12.999z"/><path id="path8645" style="opacity:.50802;fill-rule:evenodd;color:#000;fill:url(#radialGradient1471)" d="m39.43 24.993l-7.407 0.012 0.003 12.993-15.378-0.009c0.77-18.341 10.722-10.993 15.381-21.647l7.401 8.651z"/><path id="path8658" style="opacity:.48128;color:#000;stroke:#fff;stroke-miterlimit:10;fill:none" d="m15.521 37.496l16.001 0.004v-12.993l6.817-0.016-14.954-17.452-14.707 17.457 6.84 0.005 0.003 12.995z"/></g></g><metadata/></svg>