<svg xmlns="http://www.w3.org/2000/svg" xmlns:svg="http://www.w3.org/2000/svg" id="Layer_1" width="96" height="96" x="0" y="0" version="1.1" viewBox="0 0 96 96" style="enable-background:new 0 0 96 96" xml:space="preserve"><metadata id="metadata11"/><style id="style3" type="text/css">.st0{fill:#333}</style><g id="XMLID_1_" style="fill:red"><path id="XMLID_7_" d="M48,57.3h18.6v4.6H48V57.3z M34.1,61.9L48,48L34.1,34.1l-3.5,3.5L41,48L30.6,58.4L34.1,61.9z M80.5,24.8v46.4c0,2.6-2.1,4.6-4.6,4.6H20.1c-2.6,0-4.6-2.1-4.6-4.6V24.8c0-2.6,2.1-4.6,4.6-4.6h55.7 C78.4,20.1,80.5,22.2,80.5,24.8z M75.9,24.8H20.1v46.4h55.7V24.8z" class="st0" style="fill:red"/></g></svg>