<svg xmlns="http://www.w3.org/2000/svg" xmlns:svg="http://www.w3.org/2000/svg" id="svg2" width="48" height="48" version="1.1"><defs id="defs4"><marker id="DotS" orient="auto" refX="0" refY="0" style="overflow:visible"><path id="path3826" d="M -2.5,-1.0 C -2.5,1.7600000 -4.7400000,4.0 -7.5,4.0 C -10.260000,4.0 -12.5,1.7600000 -12.5,-1.0 C -12.5,-3.7600000 -10.260000,-6.0 -7.5,-6.0 C -4.7400000,-6.0 -2.5,-3.7600000 -2.5,-1.0 z" style="fill-rule:evenodd;stroke:#000;stroke-width:1pt" transform="scale(0.2) translate(7.4, 1)"/></marker><marker id="DotL" orient="auto" refX="0" refY="0" style="overflow:visible"><path id="path3820" d="M -2.5,-1.0 C -2.5,1.7600000 -4.7400000,4.0 -7.5,4.0 C -10.260000,4.0 -12.5,1.7600000 -12.5,-1.0 C -12.5,-3.7600000 -10.260000,-6.0 -7.5,-6.0 C -4.7400000,-6.0 -2.5,-3.7600000 -2.5,-1.0 z" style="fill-rule:evenodd;stroke:#000;stroke-width:1pt" transform="scale(0.8) translate(7.4, 1)"/></marker></defs><metadata id="metadata7"/><g id="layer1" transform="translate(0,-1004.3622)"><path style="fill:none;stroke:#000;stroke-width:.21333462;stroke-linecap:butt;stroke-linejoin:miter;stroke-miterlimit:4;stroke-opacity:1;stroke-dasharray:none" id="path2987" d="m 29.495362,1012.8849 4.297638,2.8923 -2.078,12.1845 2.078,12.2845 -4.297638,2.7923 -9.488695,-15.0768 z"/></g></svg>