<svg xmlns="http://www.w3.org/2000/svg" xmlns:svg="http://www.w3.org/2000/svg" xmlns:xlink="http://www.w3.org/1999/xlink" id="svg3810" width="16" height="16" version="1.1"><defs id="defs3812"><linearGradient id="linearGradient3988" x1="24" x2="24" y1="6.923" y2="41.077" gradientTransform="matrix(0.24324324,0,0,0.35135133,2.1621636,-0.43242804)" gradientUnits="userSpaceOnUse" xlink:href="#linearGradient3977"/><linearGradient id="linearGradient3977"><stop offset="0" style="stop-color:#fff;stop-opacity:1" id="stop3979"/><stop offset="0" style="stop-color:#fff;stop-opacity:.23529412" id="stop3981"/><stop offset="1" style="stop-color:#fff;stop-opacity:.15686275" id="stop3983"/><stop offset="1" style="stop-color:#fff;stop-opacity:.39215687" id="stop3985"/></linearGradient><linearGradient id="linearGradient3104-9"><stop offset="0" style="stop-color:#000;stop-opacity:.33950618" id="stop3106-5"/><stop offset="1" style="stop-color:#000;stop-opacity:.24691358" id="stop3108-5"/></linearGradient><linearGradient id="linearGradient3019" x1="-51.786" x2="-51.786" y1="50.786" y2="2.906" gradientTransform="matrix(0.25378586,0,0,0.30501865,19.128979,-0.68547704)" gradientUnits="userSpaceOnUse" xlink:href="#linearGradient3104-9"/><radialGradient id="radialGradient3411" cx="8.276" cy="9.994" r="12.672" fx="8.276" fy="9.994" gradientTransform="matrix(0,2.5645243,-2.8983276,0,36.991821,-24.485687)" gradientUnits="userSpaceOnUse" xlink:href="#linearGradient3242-4-8"/><linearGradient id="linearGradient3242-4-8"><stop id="stop3244-7-5" style="stop-color:#f89b7e;stop-opacity:1" offset="0"/><stop id="stop3246-1-3" style="stop-color:#e35d4f;stop-opacity:1" offset=".262"/><stop id="stop3248-5-7" style="stop-color:#c6262e;stop-opacity:1" offset=".661"/><stop id="stop3250-7-0" style="stop-color:#690b2c;stop-opacity:1" offset="1"/></linearGradient></defs><metadata id="metadata3815"/><path id="path2" style="color:#bebebe;overflow:visible;fill:#bebebe;marker:none" d="M 3,0 C 2.446,0 2,0.446 2,1 v 14 c 0,0.554 0.446,1 1,1 h 10 c 0.554,0 1,-0.446 1,-1 V 5 C 14,4.446 9.554,0 9,0 Z M 4.5,2 H 9 v 3 h 3 v 8.5 c 0,0.277 -0.223,0.5 -0.5,0.5 h -7 C 4.2236283,14.000554 3.9994456,13.776372 4,13.5 V 2.5 C 4,2.223 4.223,2 4.5,2 Z" overflow="visible"/><path id="path4" style="color:#000;font-weight:400;line-height:normal;font-family:sans-serif;font-variant-ligatures:normal;font-variant-position:normal;font-variant-caps:normal;font-variant-numeric:normal;font-variant-alternates:normal;font-feature-settings:normal;text-indent:0;text-align:start;text-decoration:none;text-decoration-line:none;text-decoration-style:solid;text-decoration-color:#000;text-transform:none;text-orientation:mixed;white-space:normal;shape-padding:0;overflow:visible;isolation:auto;mix-blend-mode:normal;fill:#bebebe;marker:none" d="m 6.432,6 c -0.86,0 -1.568,0.708 -1.568,1.568 0,0.86 0.708,1.569 1.568,1.569 C 7.292,9.137 8,8.429 8,7.568 8,6.708 7.292,6 6.432,6 Z m 0,1 C 6.752,7 7,7.249 7,7.568 7,7.888 6.752,8.137 6.432,8.137 A 0.56,0.56 0 0 1 5.864,7.568 0.56,0.56 0 0 1 6.432,7 Z M 9,8 v 1 h 2 V 8 Z m -4,2 v 1 h 6 v -1 z m 0,2 v 1 h 4 v -1 z" font-weight="400" overflow="visible"/></svg>