<svg xmlns="http://www.w3.org/2000/svg" xmlns:osb="http://www.openswatchbook.org/uri/2009/osb" xmlns:svg="http://www.w3.org/2000/svg" id="svg7384" width="16" height="16" version="1.1" viewBox="0 0 16 16"><metadata id="metadata90"/><title id="title9167">Gnome Symbolic Icon Theme</title><defs id="defs7386"><linearGradient id="linearGradient19282" gradientTransform="matrix(-2.7365795,0.28202934,-0.18908311,-0.99988321,239.54008,-879.45557)" osb:paint="solid"><stop id="stop19284" offset="0" style="stop-color:#666;stop-opacity:1"/></linearGradient></defs><path style="opacity:1;fill:#3eff00;fill-opacity:1;stroke:none;stroke-width:1.42857146;stroke-linecap:butt;stroke-linejoin:bevel;stroke-miterlimit:4;stroke-dasharray:none;stroke-opacity:1" id="path2564" d="m 11,6 a 5,5 0 0 0 -5,5 5,5 0 0 0 5,5 5,5 0 0 0 5,-5 5,5 0 0 0 -5,-5 z m 2.207031,2.0507814 1.364398,1.3643972 -3.853238,3.8532374 -0.680802,0.680803 -0.683595,-0.680803 -1.925223,-1.928015 1.364398,-1.3643967 1.24442,1.2444197 z" class="success"/><path style="color:#bebebe;overflow:visible;isolation:auto;mix-blend-mode:normal;fill:#bebebe;fill-opacity:1;marker:none" id="path2" d="m 6,0.990234 a 1,1 0 0 0 -1,1 v 0.00977 c -1.764,0.4559956 -2.998,2.16823 -3,3.99023 0,0 -1.562e-4,4.999094 -1.66015625,5.621094 -0.016,0.01 -0.0220625,0.02997 -0.0390625,0.04297 a 0.726,0.726 0 0 0 -0.16210937,0.175781 c -0.018,0.027 -0.03873438,0.04717 -0.05273438,0.07617 A 0.738,0.738 0 0 0 0,12.240234 c 0,0.415 0.335,0.75 0.75,0.75 H 5.3476562 A 6,6 0 0 1 5,11 6,6 0 0 1 9.890625,5.1074215 C 9.5660844,3.6417397 8.4743027,2.380896 7,1.9999996 v -0.00977 A 1,1 0 0 0 6,0.990234 Z m -1.9335938,13 A 2,2 0 0 0 6,15.490234 2,2 0 0 0 6.8320312,15.306641 6,6 0 0 1 5.8066406,13.990234 Z"/></svg>