<svg xmlns="http://www.w3.org/2000/svg" xmlns:svg="http://www.w3.org/2000/svg" id="svg7384" width="16" height="16" version="1.1"><metadata id="metadata90"/><title id="title9167">Gnome Symbolic Icon Theme</title><g id="layer12" transform="translate(-241 -627)"><path id="path4597" style="text-indent:0;text-transform:none;block-progression:tb;color:#bebebe;fill:#bebebe" d="m 255.28333,628.00794 a 1.1630693,1.1630693 0 0 0 -0.14536,0.0363 1.1630693,1.1630693 0 0 0 -0.90856,1.16295 v 1.96249 c -0.44454,-0.67215 -0.98766,-1.25855 -1.63535,-1.74443 -1.3439,-1.00802 -2.94459,-1.45637 -4.50644,-1.38101 -0.22312,0.0105 -0.43289,0.0411 -0.65416,0.0727 -1.77025,0.25284 -3.46351,1.1897 -4.61553,2.72573 -2.30404,3.07183 -1.65453,7.47198 1.41741,9.77602 3.07194,2.30404 7.47197,1.65453 9.77601,-1.41741 a 1.1702796,1.1702796 0 0 0 0.22097,-0.69777 1.1702796,1.1702796 0 0 0 0,-0.18171 v -0.98124 h -0.9449 -0.10897 a 1.1702796,1.1702796 0 0 0 -0.10897,0 1.1702796,1.1702796 0 0 0 -0.9449,0.47245 c -1.54975,2.06621 -4.43899,2.45836 -6.50533,0.90855 -2.06622,-1.54975 -2.45836,-4.43899 -0.90855,-6.50532 1.54975,-2.06622 4.43899,-2.45837 6.50532,-0.90856 0.49944,0.37461 0.89494,0.85239 1.19924,1.38101 h -1.67175 a 1.1630693,1.1630693 0 0 0 -1.16295,1.16295 1.1630693,1.1630693 0 0 0 0,0.2544 v 0.90855 h 0.98124 0.18171 4.65182 1.16295 v -1.16295 -4.65181 a 1.1630693,1.1630693 0 0 0 0,-0.21806 v -0.9449 h -0.9449 a 1.1630693,1.1630693 0 0 0 -0.32708,-0.0363 z"/></g></svg>