<svg xmlns="http://www.w3.org/2000/svg" xmlns:svg="http://www.w3.org/2000/svg" id="svg7384" width="16" height="16.024" version="1.1"><metadata id="metadata90"/><title id="title9167">Gnome Symbolic Icon Theme</title><g id="layer12" transform="translate(-100 -685.98)"><path id="path3869-2" style="text-indent:0;text-transform:none;block-progression:tb;color:#000;fill:#bebebe" d="m 104.84066,688.81615 a 0.99976603,0.99998598 0 0 0 -0.34806,0.1339 c -1.05317,0.60952 -1.93098,1.46569 -2.54345,2.51737 -1.93919,3.32968 -0.81215,7.64766 2.51676,9.58724 3.32891,1.93959 7.64586,0.81233 9.58495,-2.51736 1.93918,-3.32969 0.81214,-7.64766 -2.51676,-9.58725 a 1.0078964,1.0081964 0 1 0 -1.01739,1.74073 c 2.39519,1.3956 3.18912,4.43315 1.79382,6.82894 -1.3953,2.39579 -4.43205,3.18982 -6.82734,1.79422 -2.38489,-1.38961 -3.19112,-4.41116 -1.82061,-6.80215 l 0.0268,-0.0268 c 0.4375,-0.75122 1.06828,-1.38561 1.82061,-1.82101 a 0.99976603,0.99998598 0 0 0 -0.66934,-1.84781 z"/><path id="path4710" style="text-indent:0;text-transform:none;block-progression:tb;color:#000;fill:#bebebe" d="m 107.78013,686.02815 a 0.999886,0.99461689 0 0 0 -0.77983,0.99452 v 4.97258 a 0.999886,0.99461689 0 1 0 1.99957,0 v -4.97258 a 0.999886,0.99461689 0 0 0 -1.21854,-0.99452 z"/></g></svg>