<svg xmlns="http://www.w3.org/2000/svg" xmlns:svg="http://www.w3.org/2000/svg" id="svg7384" width="16" height="16" version="1.1"><metadata id="metadata90"/><title id="title9167">Gnome Symbolic Icon Theme</title><path id="path4639-4-4-7" style="text-indent:0;text-transform:none;block-progression:tb;color:#000;fill:#54cb00;fill-opacity:1" d="m 8.1162437,3.41885 c 0.3018663,0.055212 0.5418088,0.3478388 0.53683,0.6546751 l 0,3.2733574 1.9640163,0 c 0.345879,-0.00525 0.66402,0.3087612 0.66402,0.6546663 0,0.3459138 -0.318141,0.659575 -0.66402,0.6546749 l -2.6186913,0 C 7.6556262,8.6561888 7.3437675,8.3443213 7.3437325,8.0015488 L 7.3438812,4.0735251 C 7.3368812,3.6857425 7.7401863,3.34612 8.1211525,3.41885 z"/><path id="path3869-9" style="text-indent:0;text-transform:none;block-progression:tb;color:#000;fill:#ff8102;fill-opacity:1" d="m 1,8.0000263 c 0,3.8532287 3.14678,6.9999997 7,6.9999997 3.853229,0 7,-3.146771 7,-6.9999997 l -2.153734,0 c 0,2.6891897 -2.156971,4.8461607 -4.846161,4.8461607 -2.6891813,0 -4.8461438,-2.156971 -4.8461438,-4.8461607 0,-2.68919 2.1569625,-4.8461613 4.8461438,-4.8461613 l 0,-2.15389125 c -3.8532288,0 -7,3.14677125 -7,7.00000005 z"/></svg>