<svg xmlns="http://www.w3.org/2000/svg" xmlns:svg="http://www.w3.org/2000/svg" id="svg2" width="16" height="16" version="1.1"><metadata id="metadata14"/><path style="color:#bebebe;display:inline;overflow:visible;visibility:visible;fill:#bebebe;fill-opacity:1;fill-rule:nonzero;stroke:none;stroke-width:.5;marker:none;enable-background:accumulate" id="rect4831" d="m 0,-4.1e-7 0,5.00000001 5.0000004,0 0,-5.00000001 L 0,-4.1e-7 Z m 7.0000004,0 0,1.00000001 -1,0 0,1 1,0 1,0 1,0 0,-1 -1,0 0,-1.00000001 -1,0 z m 2,1.00000001 0.9999995,0 0,-1.00000001 -0.9999995,0 0,1.00000001 z m 0,1 0,1 0.9999995,0 0,-1 -0.9999995,0 z m 0,1 -3,0 0,1 2,0 0,1 1,0 0,-1 0,-1 z m 0,2 0,1 0.9999995,0 0,-1 -0.9999995,0 z m 0.9999995,1 0,1 1.0000011,0 0,1 1,0 0,-1 2,0 0,-1 -4.0000011,0 z m 4.0000011,1 0,1 1,0 0,-1 -1,0 z m 1,0 1,0 0,-1 -1,0 0,1 z m -1,1 -2,0 0,1 2,0 0,-1 z m 0,1 0,1.0000004 -2,0 0,1 3,0 0,-1 1,0 0,-1.0000004 -2,0 z m 1,2.0000004 0,2 -1,0 0,1 -1,0 0,1 1,0 0,1 2,0 0,-2 0,-3 -1,0 z m -2,4 -1,0 -1,0 0,1 1,0 1,0 0,-1 z m -2,0 0,-1 -1.0000011,0 0,1 1.0000011,0 z m -1.0000011,0 -1.9999995,0 0,1 1.9999995,0 0,-1 z m -1.9999995,0 0,-1 -1,0 0,1 1,0 z m -1,0 -1,0 0,1 1,0 0,-1 z m 0,-1 0,-1 1,0 0,-1 -1,0 0,-2 -1,0 0,4 1,0 z m -1,-4 0,-2.0000004 -1,0 0,2.0000004 1,0 z m -1,-2.0000004 0,-1 -1,0 0,1 1,0 z m -1,0 -2,0 0,2.0000004 2,0 0,-2.0000004 z m -2,0 0,-1 1,0 0,-1 -3.0000004,0 0,1 0.99999996,0 0,1 1.00000044,0 z m -1.00000044,0 -0.99999996,0 0,1 L 0,10 l 0.99999996,0 0,-1.0000004 0,-1 z m 4.00000044,-1 1,0 0,-1 -1,0 0,1 z m 1,0 0,1 1,0 0,2.0000004 1,0 0,-1.0000004 1,0 0,-1 -1,0 0,-1 1,0 0,-1 -1,0 0,-1 -1,0 0,2 -1,0 z m 3,0 0,1 0.9999995,0 0,-1 -0.9999995,0 z m 0.9999995,1 0,1 1.0000011,0 0,-1 -1.0000011,0 z m 0,1 -0.9999995,0 0,1.0000004 0.9999995,0 0,-1.0000004 z m 0,1.0000004 0,1 -0.9999995,0 0,2 2.0000006,0 0,1 2,0 0,-1 1,0 0,-1 -3,0 0,-1 0,-1 -1.0000011,0 z m -0.9999995,3 -1,0 0,1 1,0 0,-1 z m 0,-2 0,-1 -1,0 0,1 1,0 z M 11.000001,-4.1e-7 l 0,5.00000001 5,0 0,-5.00000001 -5,0 z M 0.99999996,0.9999996 l 3.00000044,0 0,3 -3.00000044,0 0,-3 z m 11.00000104,0 3,0 0,3 -3,0 0,-3 z m -10.0000006,1 0,1 1,0 0,-1 -1,0 z m 11.0000006,0 0,1 1,0 0,-1 -1,0 z M 0,11 l 0,5 5.0000004,0 0,-5 L 0,11 Z m 0.99999996,1 3.00000044,0 0,3 -3.00000044,0 0,-3 z m 1.00000044,1 0,1 1,0 0,-1 -1,0 z"/></svg>