<svg xmlns="http://www.w3.org/2000/svg" xmlns:svg="http://www.w3.org/2000/svg" xmlns:xlink="http://www.w3.org/1999/xlink" id="svg2945" width="48" height="48" version="1.1"><defs id="defs2947"><linearGradient id="linearGradient4325"><stop id="stop4327" style="stop-color:#fbfbfb;stop-opacity:.58823532" offset="0"/><stop id="stop4329" style="stop-color:#fbfbfb;stop-opacity:0" offset="1"/></linearGradient><linearGradient id="linearGradient4299"><stop id="stop4301" style="stop-color:#d7e866;stop-opacity:1" offset="0"/><stop id="stop4303" style="stop-color:#fbfbfb;stop-opacity:0" offset="1"/></linearGradient><linearGradient id="linearGradient4291"><stop id="stop4293" style="stop-color:#8cab2a;stop-opacity:1" offset="0"/><stop id="stop4295" style="stop-color:#d7e866;stop-opacity:1" offset=".379"/><stop id="stop4297" style="stop-color:#8cab2a;stop-opacity:1" offset="1"/></linearGradient><linearGradient id="linearGradient4281"><stop id="stop4283" style="stop-color:#69aa28;stop-opacity:1" offset="0"/><stop id="stop4285" style="stop-color:#548820;stop-opacity:1" offset="1"/></linearGradient><linearGradient id="linearGradient4253"><stop id="stop4255" style="stop-color:#000;stop-opacity:.10588235" offset="0"/><stop id="stop4257" style="stop-color:#000;stop-opacity:0" offset=".5"/><stop id="stop4259" style="stop-color:#000;stop-opacity:.10588235" offset="1"/></linearGradient><linearGradient id="linearGradient4241"><stop id="stop4243" style="stop-color:#000;stop-opacity:.27058825" offset="0"/><stop id="stop4249" style="stop-color:#000;stop-opacity:0" offset=".5"/><stop id="stop4245" style="stop-color:#000;stop-opacity:.27058825" offset="1"/></linearGradient><linearGradient id="linearGradient4247" x1="15" x2="32" y1="23" y2="23" gradientTransform="matrix(1,0,0,0.92965233,0,-13.781273)" gradientUnits="userSpaceOnUse" xlink:href="#linearGradient4241"/><linearGradient id="linearGradient4261" x1="15" x2="32" y1="23" y2="23" gradientTransform="matrix(1,0,0,0.92965233,0,-13.781273)" gradientUnits="userSpaceOnUse" xlink:href="#linearGradient4253"/><linearGradient id="linearGradient4287" x1="18.805" x2="26.856" y1="5.8" y2="43.218" gradientTransform="matrix(1,0,0,0.92965233,0,-13.781273)" gradientUnits="userSpaceOnUse" xlink:href="#linearGradient4281"/><linearGradient id="linearGradient4289" x1="15" x2="32" y1="23" y2="23" gradientTransform="matrix(1,0,0,0.92965233,0,-13.781273)" gradientUnits="userSpaceOnUse" xlink:href="#linearGradient4291"/><linearGradient id="linearGradient4305" x1="13.776" x2="32.697" y1="44.446" y2="43.446" gradientUnits="userSpaceOnUse" xlink:href="#linearGradient4299"/><linearGradient id="linearGradient4331" x1="11.788" x2="34.65" y1="43.446" y2="43.446" gradientUnits="userSpaceOnUse" xlink:href="#linearGradient4325"/><linearGradient id="linearGradient4086-8" x1="102.308" x2="102.308" y1="-2.393" y2="-24.582" gradientTransform="matrix(0.1792665,0,0,0.14629793,6.3662019,-11.818182)" gradientUnits="userSpaceOnUse" spreadMethod="reflect" xlink:href="#linearGradient3844-9-5"/><linearGradient id="linearGradient3844-9-5"><stop id="stop3846-5-2" style="stop-color:#a5a6a8;stop-opacity:1" offset="0"/><stop id="stop3848-7-9" style="stop-color:#e8e8e8;stop-opacity:1" offset="1"/></linearGradient><linearGradient id="linearGradient4088-8" x1="109.956" x2="109.956" y1="-24.911" y2="-2.376" gradientTransform="matrix(0.1792665,0,0,0.14629793,6.3662019,-11.818182)" gradientUnits="userSpaceOnUse" xlink:href="#linearGradient2509-6-3"/><linearGradient id="linearGradient2509-6-3"><stop id="stop2511-4-1" style="stop-color:#b3b3b3;stop-opacity:1" offset="0"/><stop id="stop2513-9-0" style="stop-color:#dadada;stop-opacity:1" offset="1"/></linearGradient><linearGradient id="linearGradient2793-2-0"><stop id="stop2795-3-2" style="stop-color:#868688;stop-opacity:1" offset="0"/><stop id="stop2797-1-0" style="stop-color:#d9d9da;stop-opacity:1" offset="1"/></linearGradient><linearGradient id="linearGradient3858-1-3"><stop id="stop3860-3-1" style="stop-color:#a0a0a0;stop-opacity:1" offset="0"/><stop id="stop3862-8-0" style="stop-color:#646464;stop-opacity:1" offset="1"/></linearGradient><linearGradient id="linearGradient2900" x1="103.95" x2="89.424" y1="-7.666" y2="-7.666" gradientTransform="matrix(0.17836384,0,0,0.15586184,5.1996357,-7.965557)" gradientUnits="userSpaceOnUse" spreadMethod="reflect" xlink:href="#linearGradient2793-2-0"/><linearGradient id="linearGradient2902" x1="89.018" x2="89.018" y1="22.537" y2="27.546" gradientTransform="matrix(0.3895815,0,0,0.36055258,-12.94142,-18.22603)" gradientUnits="userSpaceOnUse" xlink:href="#linearGradient3858-1-3"/><linearGradient id="linearGradient4419" x1="24.341" x2="29.624" y1="38.077" y2="61.085" gradientTransform="matrix(1,0,0,0.92965233,0,-45.781273)" gradientUnits="userSpaceOnUse" xlink:href="#linearGradient4281"/><linearGradient id="linearGradient3280"><stop id="stop3282" style="stop-color:#000;stop-opacity:1" offset="0"/><stop id="stop3284" style="stop-color:#000;stop-opacity:0" offset="1"/></linearGradient><radialGradient id="radialGradient2921" cx="21.344" cy="14.125" r="11.969" fx="21.344" fy="14.125" gradientTransform="matrix(1.2532643,0,0,0.43050677,-3.2493464,19.784834)" gradientUnits="userSpaceOnUse" xlink:href="#linearGradient3280"/><linearGradient id="linearGradient9421"><stop id="stop9423" style="stop-color:#fff;stop-opacity:1" offset="0"/><stop id="stop9425" style="stop-color:#fff;stop-opacity:0" offset="1"/></linearGradient><filter id="filter9752" width="2.659" height="1.129" x="-.83" y="-.065" color-interpolation-filters="sRGB"><feGaussianBlur id="feGaussianBlur9754" stdDeviation="1.037"/></filter><linearGradient id="linearGradient4461" x1="718.5" x2="718.5" y1="56.875" y2="110.925" gradientTransform="translate(-689.65702,-67.585216)" gradientUnits="userSpaceOnUse" xlink:href="#linearGradient9421"/></defs><g id="layer1" transform="translate(0,16)"><path id="path3278" d="m 38.5,25.865743 c -2.077393,5.618486 -9.810954,5.962169 -15,6.134462 C 18.19374,31.766072 10.721583,31.497033 8.5000001,25.865743 10.575821,20.246205 18.311068,19.902588 23.5,19.730279 c 5.306109,0.234218 12.780036,0.503043 15,6.135464 z" style="color:#000;fill:url(#radialGradient2921);fill-opacity:1;fill-rule:nonzero;stroke:none;stroke-width:1;marker:none;visibility:visible;display:inline;overflow:visible"/><path id="path2957" d="m 11.5,-9 0,34.728952 C 11.48135,27.986939 18.696271,29.5 23.5,29.5 c 4.893032,0 12.018646,-1.596082 12,-3.771048 L 35.5,-9 c -0.07066,-1.759862 -8,-3.5 -12,-3.5 -4,0 -12.018646,1.657117 -12,3.5 z" style="opacity:.6;fill:url(#linearGradient4247);fill-opacity:1;stroke:#242424;stroke-width:.96418482px;stroke-linecap:butt;stroke-linejoin:round;stroke-opacity:1"/><path id="path4263" d="m 34.649656,43.445534 a 11.430815,2.9247899 0 1 1 -22.861629,0 11.430815,2.9247899 0 1 1 22.861629,0 z" transform="matrix(1.0060525,0,0,1.1426977,0.1406259,-24.051372)" style="fill:#fbfbfb;fill-opacity:.49411765;stroke:none"/><path id="path4265" d="m 14.5,-7.2737069 0,31.1433539 c -0.01865,2.257988 5,2.788956 9,2.788956 4,0 9.018646,-0.613989 9,-2.788956 l 0,-31.1433539 c -0.07066,-1.7598615 -5,-2.7889561 -9,-2.7889561 -4,0 -9.018646,0.9460726 -9,2.7889561 z" style="fill:url(#linearGradient4289);fill-opacity:1;stroke:url(#linearGradient4287);stroke-width:.96418482px;stroke-linecap:butt;stroke-linejoin:miter;stroke-opacity:1"/><path id="path4251" d="M 12,-9.1330114 12,25.264126 C 11.98135,28.020238 19.5,29 23.5,29 c 4,0 11.518646,-0.813716 11.5,-3.735874 l 0,-34.3971374 c 0.01864,1.8100393 -8.035819,2.9394895 -12.035819,2.9394895 -4,0 -10.982827,-1.0464292 -10.964181,-2.9394895 z" style="fill:url(#linearGradient4261);fill-opacity:1;stroke:none"/><path id="path4271" d="m 31.667705,43.445534 a 8.448863,2.1432776 0 1 1 -16.897726,0 8.448863,2.1432776 0 1 1 16.897726,0 z" transform="matrix(1.0060525,0,0,1.0458588,0.1406259,-52.828382)" style="fill:url(#linearGradient4305);fill-opacity:1;stroke:none"/><path id="path2883" d="m 15.5,-6.774 0,29.874 c -0.01865,2.257988 4,2.559 8,2.559 4,0 8.018646,-0.384033 8,-2.559 l 0,-29.874 c -0.07066,-1.7598615 -4,-2.289 -8,-2.289 -4,0 -8.018646,0.4461165 -8,2.289 z" style="opacity:.2;fill:none;stroke:#fefefe;stroke-width:.96418482px;stroke-linecap:butt;stroke-linejoin:miter;stroke-opacity:1"/><path id="path4417" d="m 14.5,-8.130353 c -0.01865,2.257988 5,2.788956 9,2.788956 4,0 9.018646,-0.613989 9,-2.788956" style="fill:none;stroke:url(#linearGradient4419);stroke-width:.96418482px;stroke-linecap:butt;stroke-linejoin:miter;stroke-opacity:1"/><path id="path4273" d="m 34.649656,43.445534 a 11.430815,2.5340338 0 1 1 -22.861629,0 11.430815,2.5340338 0 1 1 22.861629,0 z" transform="matrix(1.0060525,0,0,1.1426977,0.1406259,-58.438284)" style="fill:url(#linearGradient4331);fill-opacity:1;stroke:none"/><path id="path3878" d="m 26.5,-10.073 c 0,0.88213 -0.556817,1.598515 -3.028305,1.598515 -2.471492,0 -2.993129,-0.7166454 -2.971695,-1.598515 0.08931,-3.674447 -0.444326,-4.404275 3.060999,-4.412761 C 26.826721,-14.493661 26.5,-13.698622 26.5,-10.073 z" style="fill:url(#linearGradient2900);fill-opacity:1;stroke:url(#linearGradient2902);stroke-width:.99999988;stroke-miterlimit:4;stroke-opacity:1;stroke-dasharray:none"/><path id="path3880" d="m 26.5,-13.796 c 0.03557,0.574908 -0.4789,1.321514 -2.96418,1.321514 -2.485282,0 -3.03582,-0.939484 -3.03582,-1.321395 0,-0.471212 1.668302,-0.767663 3.035821,-0.69627 1.367518,0.07139 2.928605,0.121243 2.964179,0.696151 z" style="fill:url(#linearGradient4086-8);fill-opacity:1;stroke:url(#linearGradient4088-8);stroke-width:.9999997;stroke-miterlimit:4;stroke-opacity:1;stroke-dasharray:none"/><path id="path4440" d="m 35.5,-9 c -0.07066,1.759862 -8,3.5 -12,3.5 -4,0 -12.018646,-1.657117 -12,-3.5" style="opacity:.6;fill:none;stroke:#686868;stroke-width:.96418482px;stroke-linecap:butt;stroke-linejoin:round;stroke-opacity:1"/><rect id="rect9419" width="2.375" height="32.052" x="27.968" y="-5.638" rx="1.187" ry=".928" style="fill:url(#linearGradient4461);fill-opacity:1;stroke:none;display:inline;filter:url(#filter9752);enable-background:new"/></g><g id="g3421" transform="translate(0,-2)" style="opacity:.4"><path id="path3419" d="m 28.769428,17.999999 -4.526732,8 6.757304,0 L 21.212031,40 23.925983,29 17,29 l 3.706427,-11.000001 8.063001,0 0,0 z" style="fill:#fff;fill-opacity:1;stroke:none;display:inline;enable-background:new"/><path id="path2911" d="m 28.769428,16.999999 -4.526732,8 6.757304,0 L 21.212031,39 23.925983,28 17,28 l 3.706427,-11.000001 8.063001,0 0,0 z" style="fill:#000;fill-opacity:1;stroke:none;display:inline;enable-background:new"/></g></svg>