<svg xmlns="http://www.w3.org/2000/svg" xmlns:svg="http://www.w3.org/2000/svg" id="svg8" width="114.862" height="114.862" version="1.1" viewBox="0 0 30.391 30.391"><metadata id="metadata5"/><g id="layer1" transform="translate(0,-266.60929)"><flowRoot id="flowRoot4518" transform="scale(0.26458333)" xml:space="preserve" style="font-style:normal;font-weight:400;font-size:40px;line-height:125%;font-family:sans-serif;letter-spacing:0;word-spacing:0;fill:#000;fill-opacity:1;stroke:none;stroke-width:1px;stroke-linecap:butt;stroke-linejoin:miter;stroke-opacity:1"><flowRegion id="flowRegion4520" style="fill:#000"><rect id="rect4522" width="747.958" height="668.741" x="128.571" y="328.234" style="fill:#000"/></flowRegion><flowPara id="flowPara4524" style="font-style:normal;font-variant:normal;font-weight:700;font-stretch:normal;font-size:192px;font-family:'Liberation Serif';-inkscape-font-specification:'Liberation Serif Bold';fill:#000"/></flowRoot><flowRoot id="flowRoot4545" xml:space="preserve" style="font-style:normal;font-weight:400;font-size:40px;line-height:125%;font-family:sans-serif;letter-spacing:0;word-spacing:0;fill:#000;fill-opacity:1;stroke:none;stroke-width:1px;stroke-linecap:butt;stroke-linejoin:miter;stroke-opacity:1"><flowRegion id="flowRegion4547"><rect id="rect4549" width="121.218" height="323.249" x="412.142" y="84.792"/></flowRegion><flowPara id="flowPara4551"/></flowRoot><g aria-label="(.*)" transform="matrix(0.89684202,0,0,0.89684202,-9.5474379,107.30334)" style="font-style:normal;font-weight:400;font-size:40px;line-height:125%;font-family:sans-serif;letter-spacing:0;word-spacing:0;fill:#000;fill-opacity:1;stroke:none;stroke-width:1px;stroke-linecap:butt;stroke-linejoin:miter;stroke-opacity:1" id="flowRoot4553"><g id="g839" style="fill:#fff" transform="matrix(0.09457145,0,0,0.09457145,9.7211935,191.38213)"><path id="path826" style="font-style:normal;font-variant:normal;font-weight:700;font-stretch:normal;font-size:266.66665649px;font-family:'Liberation Serif';-inkscape-font-specification:'Liberation Serif Bold';fill:#fff" d="m 47.265623,33.545702 q 0,15.885416 1.041667,31.510415 1.171875,15.494791 4.6875,29.427082 3.515625,13.802081 9.895833,25.390621 6.510416,11.71875 17.317707,19.92188 v 14.84375 Q 62.760414,145.39466 49.86979,134.45716 37.109374,123.64986 28.515624,109.32695 20.052083,95.134241 15.885416,76.644658 11.71875,58.024867 11.71875,33.415493 q 0,-24.4791653 4.166666,-42.8385396 4.166667,-18.4895824 12.630208,-32.6822904 8.59375,-14.192708 21.354166,-24.999999 12.890624,-10.807291 30.33854,-20.052083 v 14.84375 q -10.807291,8.203124 -17.317707,19.791666 -6.380208,11.588541 -9.895833,25.520832 -3.515625,13.802083 -4.6875,29.2968739 -1.041667,15.3645831 -1.041667,31.2499991 z"/><path id="path828" style="font-style:normal;font-variant:normal;font-weight:700;font-stretch:normal;font-size:266.66665649px;font-family:'Liberation Serif';-inkscape-font-specification:'Liberation Serif Bold';fill:#fff" d="m 122.39583,101.64466 q -4.55729,0 -8.46354,-1.692711 -3.90625,-1.692708 -6.90104,-4.557291 -2.86458,-2.994792 -4.55729,-6.901042 -1.69271,-3.90625 -1.69271,-8.463541 0,-4.427083 1.69271,-8.333333 1.69271,-4.036458 4.55729,-6.901041 2.99479,-2.994792 6.90104,-4.6875 3.90625,-1.692709 8.46354,-1.692709 4.42709,0 8.33334,1.692709 4.03645,1.692708 6.90104,4.6875 2.99479,2.864583 4.6875,6.901041 1.6927,3.90625 1.6927,8.333333 0,4.557291 -1.6927,8.463541 -1.69271,3.90625 -4.6875,6.901042 -2.86459,2.864583 -6.90104,4.557291 -3.90625,1.692711 -8.33334,1.692711 z"/><path id="path830" style="font-style:normal;font-variant:normal;font-weight:700;font-stretch:normal;font-size:266.66665649px;font-family:'Liberation Serif';-inkscape-font-specification:'Liberation Serif Bold';fill:#fff" d="m 228.12499,-18.667838 9.50521,41.145832 h -30.33855 l 9.11459,-41.666665 -37.36979,30.729165 -12.23959,-27.734374 39.97396,-11.458333 -39.97396,-11.718749 12.23959,-27.734374 37.36979,30.33854 -9.11459,-41.27604 h 30.33855 l -9.50521,41.27604 37.5,-29.55729 12.36979,27.21354 -40.625,11.458333 40.625,11.197917 -12.36979,27.473957 z"/><path id="path832" style="font-style:normal;font-variant:normal;font-weight:700;font-stretch:normal;font-size:266.66665649px;font-family:'Liberation Serif';-inkscape-font-specification:'Liberation Serif Bold';fill:#fff" d="M 297.65625,154.63945 V 139.7957 q 10.67708,-8.20313 17.1875,-19.92188 6.51042,-11.58854 10.02604,-25.390621 3.51563,-13.932291 4.55729,-29.427082 1.17188,-15.624999 1.17188,-31.510415 0,-15.885416 -1.17188,-31.2499991 -1.04166,-15.4947909 -4.55729,-29.2968739 -3.51562,-13.932291 -10.02604,-25.520832 -6.51042,-11.588542 -17.1875,-19.791666 v -14.84375 q 17.31771,9.244792 30.20833,20.052083 12.89063,10.807291 21.35417,24.999999 8.59375,14.192708 12.76041,32.6822904 4.16667,18.3593743 4.16667,42.8385396 0,24.609374 -4.16667,43.229165 -4.16666,18.489583 -12.76041,32.682292 -8.46354,14.32291 -21.35417,25.13021 -12.89062,10.9375 -30.20833,20.18229 z"/></g></g></g></svg>