<svg xmlns="http://www.w3.org/2000/svg" xmlns:svg="http://www.w3.org/2000/svg" id="svg7384" width="16" height="16.024" version="1.1"><metadata id="metadata90"/><title id="title9167">Gnome Symbolic Icon Theme</title><path d="M 8.9549079,2.6958942 A 0.97855576,0.97877105 45 0 0 8.6213424,2.5476769 C 7.4705832,2.240621 6.270487,2.22564 5.1187243,2.5296168 1.4721094,3.491991 -0.73635514,7.2605147 0.2252025,10.906866 1.1867601,14.553218 4.9547304,16.760825 8.6012759,15.79838 12.247892,14.836007 14.456355,11.067482 13.494798,7.4211318 A 0.98651068,0.9868043 45 1 0 11.585896,7.9217629 C 12.277713,10.545388 10.724893,13.197176 8.10106,13.889617 5.4772273,14.582059 2.8259239,13.02986 2.1340358,10.406165 1.4451923,7.7938201 2.9784312,5.1445925 5.5817819,4.4383117 l 0.03709,0 C 6.4415873,4.2211825 7.3172107,4.2186846 8.139256,4.4380349 A 0.97855576,0.97877105 45 0 0 8.9548729,2.6959011 z" style="text-indent:0;text-transform:none;block-progression:tb;color:#000;fill:#bebebe" id="path3869-2"/><g id="g3030" transform="translate(-2.701135,1.5465458)"><g id="g3037"><path id="path12111" style="text-indent:0;text-transform:none;block-progression:tb;color:#000;fill:#bebebe;enable-background:new" d="m 13.607035,-1.5348354 a 1.0011039,1.0011039 0 1 0 0.094,1.99999997 h 3 V 3.4651646 a 1.0001,1.0001 0 1 0 2,0 v -4.00000003 a 1.0001,1.0001 0 0 0 -1,-0.99999997 h -4 a 1.0001,1.0001 0 0 0 -0.09375,0 z"/><rect id="rect12923" style="color:#000;fill:#bdbdbd;enable-background:new" width="1" height="1" x="17.701" y="-1.535"/><path id="path12925" style="text-indent:0;text-transform:none;block-progression:tb;color:#000;fill:#bebebe;enable-background:new" d="m 17.576035,-1.5348354 c -0.221847,0.023985 -0.434655,0.1247886 -0.59375,0.28125 L 8.985334,6.755753 c -0.38139,0.375202 -0.384211,1.0650938 -0.0059,1.4434027 0.378309,0.3783089 1.0682,0.3754878 1.443402,-0.0059 l 7.996951,-8.00933843 c 0.625076,-0.57976226 -0.0018,-1.85886707 -0.843,-1.71999997 z"/><rect id="rect4479-2-9-9-0-8" style="color:#000;fill:#bebebe" width="1" height="1" x="17.701" y="3.465"/><rect id="rect4479-2-9-9-0-8-1" style="color:#000;fill:#bebebe" width="1" height="1" x="12.701" y="-1.535"/></g></g></svg>