<svg xmlns="http://www.w3.org/2000/svg" xmlns:svg="http://www.w3.org/2000/svg" xmlns:xlink="http://www.w3.org/1999/xlink" id="svg7384" width="16" height="16" version="1.1"><metadata id="metadata90"/><title id="title9167">Gnome Symbolic Icon Theme</title><g id="layer12" transform="translate(-200,-626)"><path id="path10839-9-9-8-1" d="m 202.08158,633.46667 c -0.0607,-0.21711 -0.0326,-0.67548 -0.0326,-0.67548 0.058,-0.24196 0.24177,-0.44816 0.31252,-0.57931 l 5.21875,-4.25668 5.1875,4.25668 c 0.18819,0.15169 0.37354,0.38276 0.39546,0.79144 0.01,0.18171 -0.0652,0.44682 -0.0652,0.44682 -0.14165,0.37671 -0.41717,0.60294 -0.64373,0.68243 -0.33228,0.0907 -0.90583,-0.0424 -1.094,-0.19405 l -3.75,-3.07287 -3.78125,3.07287 c -0.19463,0.16985 -0.58345,0.26065 -1.04367,0.21032 0,0 -0.35945,-0.1535 -0.49149,-0.29057 -0.103,-0.10692 -0.17224,-0.24861 -0.21218,-0.3916 z" style="font-size:medium;font-style:normal;font-variant:normal;font-weight:400;font-stretch:normal;text-indent:0;text-align:start;text-decoration:none;line-height:normal;letter-spacing:normal;word-spacing:normal;text-transform:none;direction:ltr;block-progression:tb;writing-mode:lr-tb;text-anchor:start;color:#bebebe;fill:#fff;fill-opacity:1;fill-rule:nonzero;stroke:none;stroke-width:1.78124988;marker:none;visibility:visible;display:inline;overflow:visible;enable-background:new;font-family:Andale Mono;-inkscape-font-specification:Andale Mono"/><use id="use2992" width="16" height="16" x="0" y="0" transform="translate(-0.01631507,5.9322071)" xlink:href="#path10839-9-9-8-1"/></g></svg>